<svg viewBox="0 0 100 100" xmlns="http://www.w3.org/2000/svg">
  <path
    d="M12.8636 82.257H26.5455V49.0297L7 34.3706V76.3933C7 79.6379 9.62886 82.257 12.8636 82.257Z"
    fill="#4285F4"
  />
  <path
    d="M73.4551 82.257H87.1369C90.3814 82.257 93.0005 79.6281 93.0005 76.3933V34.3706L73.4551 49.0297"
    fill="#34A853"
  />
  <path
    d="M73.4551 23.6205V49.0296L93.0005 34.3705V26.5523C93.0005 19.301 84.723 15.1671 78.9278 19.516"
    fill="#FBBC04"
  />
  <path
    d="M26.5449 49.0297V23.6206L49.9995 41.2115L73.454 23.6206V49.0297L49.9995 66.6206"
    fill="#EA4335"
  />
  <path
    d="M7 26.5523V34.3705L26.5455 49.0296V23.6205L21.0727 19.516C15.2677 15.1671 7 19.301 7 26.5523Z"
    fill="#C5221F"
  />
</svg>
